# xmcd
#
# Track frame offsets:
#	150
#	19662
#	35925
#	55012
#	71775
#	89810
#	108525
#	127050
#	147675
#	166275
#	183675
#	201300
#	225397
#
# Disc length: 3143 seconds
#
# Revision: 6
# Processed by: cddbd v1.5.1PL0 Copyright (c) Steve Scherf et al.
# Submitted via: MusicWizard 7.2.0
#
DISCID=cc0c450d
DTITLE=Sina - Marzipan
DYEAR=2001
DGENRE=Swiss Rock
TTITLE0=Sunntag uf där Wält
TTITLE1=Propäller
TTITLE2=Anna
TTITLE3=Tummi Chüä
TTITLE4=Äs isch güät wiä's isch
TTITLE5=Nimm mi mit
TTITLE6=Stund värbii
TTITLE7=Amerika
TTITLE8=Nacht mit diär
TTITLE9=Rosurot
TTITLE10=Abär zärtlich bisch Du nit
TTITLE11=Geht in Fridu
TTITLE12=Deux-Pièces
EXTD=YEAR: 2001
EXTT0=
EXTT1=
EXTT2=
EXTT3=
EXTT4=
EXTT5=
EXTT6=
EXTT7=
EXTT8=
EXTT9=
EXTT10=
EXTT11=
EXTT12=
PLAYORDER=
